<svg id="svg" version="1.1" width="2400" height="1800" xmlns="http://www.w3.org/2000/svg" xmlns:xlink="http://www.w3.org/1999/xlink" style="display: block;"><g id="svgg"><path id="path0" d="M129.846 0.292 C 129.968 0.452,136.671 7.171,144.742 15.222 C 152.813 23.273,185.594 56.010,217.589 87.972 C 376.751 246.969,399.663 269.833,399.825 269.833 C 399.947 269.833,400.000 229.130,400.000 134.917 L 400.000 0.000 264.813 0.000 C 136.090 0.000,129.636 0.014,129.846 0.292 " stroke="none" fill="#70feab" fill-rule="evenodd"></path><path id="path1" d="M0.000 150.000 L 0.000 300.000 200.000 300.000 L 400.000 300.000 400.000 284.917 C 400.000 274.483,399.946 269.833,399.825 269.833 C 399.728 269.833,371.775 241.990,337.705 207.958 C 303.636 173.927,249.583 119.934,217.589 87.973 C 185.594 56.012,152.672 23.143,144.428 14.931 L 129.440 0.000 64.720 0.000 L 0.000 0.000 0.000 150.000 " stroke="none" fill="#39ccff" fill-rule="evenodd"></path></g></svg>